# xmcd
#
# Track frame offsets: 
#        150
#        15798
#        28605
#        44739
#        58019
#        77851
#        94514
#        121709
#        142388
#        155017
#        169698
#        192149
#        206451
#        221250
#        241514
#
# Disc length: 3519 seconds
#
# Revision: 0
# Processed by: cddbd v1.5.2PL0 Copyright (c) Steve Scherf et al.
# Submitted via: ExactAudioCopyFreeDBPlugin 1.0
#
DISCID=bf0dbd0f
DTITLE=Various Artist - 24. Blues Baltica Bluesfest
DYEAR=2013
DGENRE=Blues
TTITLE0=Lance Lopez - Come Back Home
TTITLE1=Robert Roth - Let's Boogie
TTITLE2=Harpcore - Higher and Higher
TTITLE3=Cajun Roosters - Hip et Taiout
TTITLE4=Marco Marchi and The Mojo Workers - Sometimes Baby
TTITLE5=Guitar Ray and The Gamblers - Darling Wait For Me
TTITLE6=Tommy Schneller Band - Blues For The Ladies
TTITLE7=Big Pete Pearson and The Gamblers - Big Let Down
TTITLE8=Nina Van Horn and Band - Down The Alley
TTITLE9=Ingrid Savbrant Band - Blow My Blues Away
TTITLE10=Stina Stenerud and Her Soul Replacement - Coming Home
TTITLE11=Balàzs Dániel - Welcome Boogie
TTITLE12=Yngve And His Boogie Legs - Going Down
TTITLE13=Jason Buie Band - Big Barbeque
TTITLE14=Wanda Johnson and Band - Move On
EXTD=
EXTT0=
EXTT1=
EXTT2=
EXTT3=
EXTT4=
EXTT5=
EXTT6=
EXTT7=
EXTT8=
EXTT9=
EXTT10=
EXTT11=
EXTT12=
EXTT13=
EXTT14=
PLAYORDER=
